:SAMPLES-PER-SECOND 30
:FULLY-SPECIFIED
:DEGREES
139
root  -70.4932 40.2251 11.0399 15.9146 -89.3591 -19.2108
RightUpLeg  -13.9718 -11.1664 -11.1047
RightLeg  7.70076 2.51844 2.00528
RightFoot  1.54079 -1.4043 12.438
RightToes  -1.16417e-010 0 -3.6325e-017
Spine  16.131 -0.0339264 -11.8134
Spine1  1.0944 -5.2232 18.8041
HEad  -32.3754 -6.0989 8.45602
LeftShoulder1  7.62778 -12.728 -40.7079
LeftArm  -3.82156 -47.1507 -44.95
LeftForeArm  43.3707 -56.0688 -12.9614
LeftHand  -0.244104 0.0205437 5.32207
RightShoulder  3.76018 7.87382 27.0123
RightArm  -17.6672 -12.281 39.5113
RightForeArm  -41.8162 54.1084 18.2373
RightHand  -4.55341 13.245 -28.1389
LeftUpLeg  -13.6441 11.075 -5.44522
LeftLeg  22.1583 -2.02187 -0.543681
LeftFoot  -5.38289 -0.354576 7.42159
LeftToes  4.18335e-011 -7.14095e-012 4.81992e-012
140
root  -71.1632 40.5157 10.8357 -142.474 -89.2741 139.589
RightUpLeg  -12.485 -11.1049 -10.8614
RightLeg  4.68321 2.4264 3.41292
RightFoot  6.43668 -1.9404 12.7126
RightToes  -1.16417e-010 0 -3.6325e-017
Spine  14.6862 0.676225 -10.0582
Spine1  1.17212 -3.45463 15.4766
HEad  -30.4615 -6.75222 7.57909
LeftShoulder1  8.08333 -12.7268 -43.323
LeftArm  -0.809375 -42.0315 -43.4912
LeftForeArm  43.7616 -56.7609 -13.3238
LeftHand  -0.244104 0.0205437 5.32207
RightShoulder  3.88822 8.2763 26.9668
RightArm  -15.4762 -11.5798 41.8866
RightForeArm  -45.0185 48.3533 15.0304
RightHand  -4.52551 13.248 -27.9743
LeftUpLeg  -11.5402 12.2653 -5.27898
LeftLeg  19.4681 -2.13974 -0.650192
LeftFoot  -4.90537 -0.375396 7.20851
LeftToes  4.18335e-011 -7.14095e-012 4.81992e-012
141
root  -71.8276 40.8582 10.5732 -150.665 -87.9567 148.215
RightUpLeg  -11.4504 -10.8659 -10.199
RightLeg  3.84102 1.67561 3.89521
RightFoot  8.70878 -1.60262 9.35734
RightToes  -1.16417e-010 0 -3.6325e-017
Spine  13.2024 1.32032 -8.62751
Spine1  0.976098 -1.8715 12.3627
HEad  -28.0989 -7.53482 6.81393
LeftShoulder1  8.46324 -12.8263 -45.1708
LeftArm  1.1164 -34.9466 -41.2001
LeftForeArm  44.7507 -56.2282 -12.9384
LeftHand  -0.244104 0.0205437 5.32207
RightShoulder  4.13654 8.64114 28.0433
RightArm  -13.2471 -10.9632 43.3166
RightForeArm  -45.088 42.3307 12.3774
RightHand  -4.72492 14.0405 -28.0009
LeftUpLeg  -8.99587 11.4229 -4.66603
LeftLeg  16.0876 -0.747995 -1.26616
LeftFoot  -3.75275 -0.380727 6.08554
LeftToes  4.18335e-011 -7.14095e-012 4.81992e-012
142
root  -72.4657 41.175 10.2902 -153.194 -87.1801 150.786
RightUpLeg  -9.98209 -9.92507 -9.09693
RightLeg  3.33301 -0.0299732 3.50198
RightFoot  8.46915 -0.665875 4.12536
RightToes  -1.16417e-010 0 -3.6325e-017
Spine  12.1698 1.63059 -6.72638
Spine1  0.69391 -0.674081 9.29389
HEad  -25.3723 -7.85087 5.24625
LeftShoulder1  8.99779 -13.2983 -46.7212
LeftArm  1.97977 -26.6108 -37.5493
LeftForeArm  45.4411 -54.4134 -11.9038
LeftHand  -0.244104 0.0205437 5.32207
RightShoulder  4.33779 8.78689 29.3032
RightArm  -11.6619 -10.5762 44.649
RightForeArm  -44.0663 36.7979 10.4001
RightHand  -5.25921 15.4592 -28.9944
LeftUpLeg  -5.76662 8.98945 -3.36147
LeftLeg  12.0348 2.24572 -2.45375
LeftFoot  -2.81468 -0.35879 5.02831
LeftToes  4.18335e-011 -7.14095e-012 4.81992e-012
143
root  -73.0973 41.3854 10.0094 -158.652 -86.827 156.084
RightUpLeg  -8.40914 -8.90687 -7.96909
RightLeg  2.74543 -1.51606 2.92779
RightFoot  7.81643 -0.0581665 0.671547
RightToes  -1.16417e-010 0 -3.6325e-017
Spine  10.4766 1.65037 -5.56978
Spine1  2.599 -0.53069 8.7814
HEad  -22.2716 -5.53102 1.07384
LeftShoulder1  9.68359 -13.1327 -50.81
LeftArm  2.49704 -19.876 -31.5219
LeftForeArm  44.735 -50.727 -10.3069
LeftHand  -0.244104 0.0205437 5.32207
RightShoulder  4.01764 8.24707 28.1802
RightArm  -10.376 -8.96235 46.772
RightForeArm  -43.3014 31.9843 8.92509
RightHand  -5.44237 15.9628 -29.2743
LeftUpLeg  -2.82908 6.60599 -2.04268
LeftLeg  8.69448 5.09508 -3.61063
LeftFoot  -2.40497 -0.36143 4.80831
LeftToes  4.18335e-011 -7.14095e-012 4.81992e-012
144
root  -73.7163 41.4897 9.70417 -159.981 -86.7076 157.472
RightUpLeg  -7.48542 -8.44082 -7.41266
RightLeg  2.82799 -2.04535 2.66886
RightFoot  7.29368 0.0142708 0.2248
RightToes  -1.16417e-010 0 -3.6325e-017
Spine  10.0089 1.34141 -4.08842
Spine1  1.40459 -0.138733 6.33114
HEad  -16.6186 -2.6852 -1.25295
LeftShoulder1  9.7386 -13.2262 -50.8109
LeftArm  3.1585 -11.4721 -28.9533
LeftForeArm  42.7337 -43.3049 -7.71709
LeftHand  -0.244104 0.0205437 5.32207
RightShoulder  4.40058 8.77319 29.8853
RightArm  -10.2449 -10.191 45.7411
RightForeArm  -42.5155 28.7697 8.04196
RightHand  -5.01619 15.2929 -27.929
LeftUpLeg  -1.20234 5.9131 -1.30763
LeftLeg  7.42297 5.68573 -4.03082
LeftFoot  -2.40825 -0.33854 4.51985
LeftToes  4.18335e-011 -7.14095e-012 4.81992e-012
145
root  -74.3033 41.5163 9.36896 -160.284 -86.6169 157.901
RightUpLeg  -7.19495 -8.43551 -7.16816
RightLeg  4.02326 -1.9074 2.68006
RightFoot  5.96113 -0.104829 0.959925
RightToes  -1.16417e-010 0 -3.6325e-017
Spine  9.06267 1.19434 -3.74869
Spine1  1.73525 -0.167456 5.96181
HEad  -14.9849 0.195089 -3.67159
LeftShoulder1  9.61129 -12.8733 -51.2163
LeftArm  2.64958 -4.32225 -27.1386
LeftForeArm  39.0955 -34.2383 -5.33989
LeftHand  -0.244104 0.0205437 5.32207
RightShoulder  4.44525 8.69918 30.4731
RightArm  -10.8653 -10.7178 43.9942
RightForeArm  -41.5125 25.9154 7.29758
RightHand  -4.67092 14.7623 -26.7663
LeftUpLeg  -0.517061 6.89059 -0.750487
LeftLeg  7.92385 4.53037 -3.78808
LeftFoot  -3.07063 -0.224163 3.33967
LeftToes  4.18335e-011 -7.14095e-012 4.81992e-012
146
root  -74.8415 41.4812 9.04655 -167.656 -86.4116 165.183
RightUpLeg  -7.10272 -8.39407 -6.55847
RightLeg  5.90538 -1.65355 2.83825
RightFoot  3.94433 -0.111398 1.0221
RightToes  -1.16417e-010 0 -3.6325e-017
Spine  8.93299 1.24532 -2.50194
Spine1  1.62458 0.154505 5.19277
HEad  -13.9193 2.67582 -5.52599
LeftShoulder1  9.35231 -12.5441 -50.8618
LeftArm  0.895947 2.87864 -25.7853
LeftForeArm  33.5286 -25.2149 -3.88953
LeftHand  -0.244104 0.0205437 5.32207
RightShoulder  4.38273 8.43566 30.7553
RightArm  -12.8908 -11.9332 41.5719
RightForeArm  -41.7729 23.1838 6.81497
RightHand  -4.79776 14.9114 -27.2556
LeftUpLeg  -0.468067 9.94977 0.0534065
LeftLeg  10.06 1.80028 -2.89164
LeftFoot  -4.65502 -0.0779698 1.8049
LeftToes  4.18335e-011 -7.14095e-012 4.81992e-012
